Coordinates
version=1
nRows=43
nColumns=12
inDegrees=yes

Units are S.I. units (second, meters, Newtons, ...)
Angles are in degrees

endheader
time	SC_y	SC_z	SC_x	AC_y	AC_z	AC_x	GH_y	GH_z	GH_yy	EL_x	PS_y
       0.0              -37.07          5.797          84.94          50.89         -19.45         -16.77          159.6          84.55         -166.3          116.0          78.13
  0.001387              -37.08          5.798          84.94          50.89         -19.45         -16.77          159.6          84.55         -166.2          116.0          78.14
  0.002774              -37.08          5.798          84.94          50.89         -19.44         -16.76          159.6          84.54         -166.2          116.0          78.14
  0.004161              -37.08          5.799          84.94          50.89         -19.44         -16.76          159.6          84.54         -166.2          116.0          78.14
  0.005548              -37.09            5.8          84.94          50.89         -19.44         -16.75          159.6          84.53         -166.2          116.0          78.15
  0.006935              -37.09            5.8          84.94           50.9         -19.44         -16.75          159.6          84.53         -166.2          116.0          78.15
  0.008322              -37.09          5.801          84.93           50.9         -19.44         -16.74          159.6          84.52         -166.1          116.0          78.16
  0.009709               -37.1          5.802          84.93           50.9         -19.44         -16.73          159.6          84.51         -166.1          115.9          78.17
    0.0111               -37.1          5.803          84.93           50.9         -19.44         -16.72          159.6           84.5         -166.1          115.9          78.17
   0.01248              -37.11          5.803          84.93           50.9         -19.44         -16.72          159.6           84.5         -166.1          115.9          78.18
   0.01387              -37.12          5.804          84.93           50.9         -19.44         -16.71          159.6          84.49         -166.0          115.9          78.19
   0.01526              -37.12          5.805          84.93           50.9         -19.44          -16.7          159.6          84.48         -166.0          115.9          78.19
   0.01664              -37.13          5.806          84.93           50.9         -19.44         -16.69          159.6          84.47         -166.0          115.9           78.2
   0.01803              -37.14          5.808          84.93          50.91         -19.44         -16.68          159.6          84.46         -165.9          115.8          78.21
   0.01942              -37.14          5.809          84.93          50.91         -19.43         -16.66          159.6          84.45         -165.9          115.8          78.22
   0.02081              -37.15           5.81          84.93          50.91         -19.43         -16.65          159.6          84.43         -165.8          115.8          78.23
   0.02219              -37.16          5.812          84.93          50.91         -19.43         -16.64          159.5          84.42         -165.8          115.8          78.24
   0.02358              -37.17          5.813          84.93          50.91         -19.43         -16.62          159.5           84.4         -165.7          115.8          78.26
   0.02497              -37.18          5.815          84.92          50.92         -19.43          -16.6          159.5          84.39         -165.7          115.7          78.27
   0.02635               -37.2          5.817          84.92          50.92         -19.43         -16.59          159.5          84.37         -165.6          115.7          78.28
   0.02774              -37.21          5.819          84.92          50.92         -19.42         -16.57          159.5          84.35         -165.5          115.7           78.3
   0.02913              -37.22          5.821          84.92          50.92         -19.42         -16.54          159.5          84.33         -165.5          115.6          78.32
   0.03051              -37.24          5.824          84.92          50.93         -19.42         -16.52          159.5          84.31         -165.4          115.6          78.34
    0.0319              -37.26          5.827          84.92          50.93         -19.42         -16.49          159.5          84.28         -165.3          115.5          78.36
   0.03329              -37.28           5.83          84.91          50.93         -19.41         -16.46          159.5          84.25         -165.2          115.5          78.39
   0.03468               -37.3          5.833          84.91          50.94         -19.41         -16.43          159.5          84.22         -165.0          115.4          78.41
   0.03606              -37.32          5.837          84.91          50.94          -19.4         -16.39          159.4          84.18         -164.9          115.4          78.44
   0.03745              -37.35          5.842          84.91          50.95          -19.4         -16.34          159.4          84.14         -164.8          115.3          78.48
   0.03884              -37.38          5.847           84.9          50.96         -19.39          -16.3          159.4          84.09         -164.6          115.2          78.52
   0.04022              -37.42          5.853           84.9          50.96         -19.39         -16.24          159.4          84.04         -164.4          115.1          78.56
   0.04161              -37.46          5.859          84.89          50.97         -19.38         -16.18          159.3          83.98         -164.2          115.0          78.61
     0.043              -37.51          5.867          84.89          50.98         -19.37          -16.1          159.3          83.91         -163.9          114.9          78.67
   0.04438              -37.56          5.875          84.88          50.99         -19.36         -16.02          159.3          83.83         -163.6          114.8          78.74
   0.04577              -37.63          5.885          84.88          51.01         -19.35         -15.92          159.2          83.74         -163.3          114.6          78.82
   0.04716               -37.7          5.897          84.87          51.02         -19.34         -15.81          159.2          83.63         -162.9          114.4          78.91
   0.04855              -37.79          5.911          84.86          51.04         -19.33         -15.68          159.1           83.5         -162.4          114.2          79.02
   0.04993              -37.89          5.927          84.85          51.06         -19.31         -15.52          159.0          83.35         -161.9          114.0          79.15
   0.05132              -38.02          5.947          84.83          51.09         -19.29         -15.33          158.9          83.16         -161.2          113.6           79.3
   0.05271              -38.17          5.971          84.82          51.12         -19.26          -15.1          158.8          82.94         -160.4          113.3          79.49
   0.05409              -38.35            6.0           84.8          51.16         -19.23         -14.81          158.7          82.67         -159.4          112.8          79.72
   0.05548              -38.58          6.036          84.77          51.21         -19.19         -14.47          158.5          82.34         -158.2          112.2           80.0
   0.05687              -38.86          6.081          84.74          51.27         -19.15         -14.03          158.3          81.92         -156.7          111.5          80.35
   0.05825              -39.22          6.137           84.7          51.34         -19.09         -13.49          158.1           81.4         -154.8          110.6          80.79
